<svg width="3948" height="1436" viewBox="0 0 3948 1436" fill="none" xmlns="http://www.w3.org/2000/svg">
<rect width="3948" height="1436" fill="white"/>
<path d="M1573 812.5C1532 812.5 1498.33 802.833 1472 783.5C1445.67 763.833 1431.5 735.833 1429.5 699.5H1534C1535 711.833 1538.67 720.833 1545 726.5C1551.33 732.167 1559.5 735 1569.5 735C1578.5 735 1585.83 732.833 1591.5 728.5C1597.5 723.833 1600.5 717.5 1600.5 709.5C1600.5 699.167 1595.67 691.167 1586 685.5C1576.33 679.833 1560.67 673.5 1539 666.5C1516 658.833 1497.33 651.5 1483 644.5C1469 637.167 1456.67 626.667 1446 613C1435.67 599 1430.5 580.833 1430.5 558.5C1430.5 535.833 1436.17 516.5 1447.5 500.5C1458.83 484.167 1474.5 471.833 1494.5 463.5C1514.5 455.167 1537.17 451 1562.5 451C1603.5 451 1636.17 460.667 1660.5 480C1685.17 499 1698.33 525.833 1700 560.5H1593.5C1593.17 549.833 1589.83 541.833 1583.5 536.5C1577.5 531.167 1569.67 528.5 1560 528.5C1552.67 528.5 1546.67 530.667 1542 535C1537.33 539.333 1535 545.5 1535 553.5C1535 560.167 1537.5 566 1542.5 571C1547.83 575.667 1554.33 579.833 1562 583.5C1569.67 586.833 1581 591.167 1596 596.5C1618.33 604.167 1636.67 611.833 1651 619.5C1665.67 626.833 1678.17 637.333 1688.5 651C1699.17 664.333 1704.5 681.333 1704.5 702C1704.5 723 1699.17 741.833 1688.5 758.5C1678.17 775.167 1663 788.333 1643 798C1623.33 807.667 1600 812.5 1573 812.5ZM1848.06 456.5V809H1750.06V456.5H1848.06ZM2128.87 628C2149.53 632.667 2165.87 643 2177.87 659C2190.2 674.667 2196.37 692.667 2196.37 713C2196.37 743 2186.03 766.5 2165.37 783.5C2144.7 800.5 2115.7 809 2078.37 809H1903.87V456.5H2072.87C2108.87 456.5 2137.03 464.5 2157.37 480.5C2178.03 496.5 2188.37 519 2188.37 548C2188.37 568.667 2182.87 586 2171.87 600C2161.2 613.667 2146.87 623 2128.87 628ZM2001.87 596.5H2051.37C2076.03 596.5 2088.37 586.333 2088.37 566C2088.37 545 2076.03 534.5 2051.37 534.5H2001.87V596.5ZM2058.87 730C2083.53 730 2095.87 719.667 2095.87 699C2095.87 688.333 2092.53 680.167 2085.87 674.5C2079.53 668.833 2070.37 666 2058.37 666H2001.87V730H2058.87ZM2337.32 535V592.5H2449.82V667H2337.32V730.5H2464.82V809H2239.32V456.5H2464.82V535H2337.32ZM2691.74 809L2621.74 679H2611.24V809H2513.24V456.5H2667.74C2696.08 456.5 2720.08 461.5 2739.74 471.5C2759.41 481.167 2774.24 494.667 2784.24 512C2794.24 529 2799.24 548.167 2799.24 569.5C2799.24 593.5 2792.58 614.667 2779.24 633C2766.24 651 2747.08 663.833 2721.74 671.5L2801.24 809H2691.74ZM2611.24 612H2659.74C2673.08 612 2683.08 608.833 2689.74 602.5C2696.41 596.167 2699.74 587 2699.74 575C2699.74 563.667 2696.24 554.833 2689.24 548.5C2682.58 541.833 2672.74 538.5 2659.74 538.5H2611.24V612ZM3109.31 456.5V534.5H3015.31V809H2917.31V534.5H2824.31V456.5H3109.31ZM3368.57 751.5H3243.57L3224.57 809H3121.57L3250.07 456.5H3363.07L3491.07 809H3387.57L3368.57 751.5ZM3344.07 676.5L3306.07 562.5L3268.57 676.5H3344.07Z" fill="black"/>
<path d="M1528.56 973L1498.08 935.68V973H1481.28V889.24H1498.08V926.8L1528.56 889.24H1548.84L1514.28 930.76L1549.8 973H1528.56ZM1623.61 906.52V973H1606.69V964.6C1604.53 967.48 1601.69 969.76 1598.17 971.44C1594.73 973.04 1590.97 973.84 1586.89 973.84C1581.69 973.84 1577.09 972.76 1573.09 970.6C1569.09 968.36 1565.93 965.12 1563.61 960.88C1561.37 956.56 1560.25 951.44 1560.25 945.52V906.52H1577.05V943.12C1577.05 948.4 1578.37 952.48 1581.01 955.36C1583.65 958.16 1587.25 959.56 1591.81 959.56C1596.45 959.56 1600.09 958.16 1602.73 955.36C1605.37 952.48 1606.69 948.4 1606.69 943.12V906.52H1623.61ZM1722.75 905.56C1730.91 905.56 1737.47 908.08 1742.43 913.12C1747.47 918.08 1749.99 925.04 1749.99 934V973H1733.19V936.28C1733.19 931.08 1731.87 927.12 1729.23 924.4C1726.59 921.6 1722.99 920.2 1718.43 920.2C1713.87 920.2 1710.23 921.6 1707.51 924.4C1704.87 927.12 1703.55 931.08 1703.55 936.28V973H1686.75V936.28C1686.75 931.08 1685.43 927.12 1682.79 924.4C1680.15 921.6 1676.55 920.2 1671.99 920.2C1667.35 920.2 1663.67 921.6 1660.95 924.4C1658.31 927.12 1656.99 931.08 1656.99 936.28V973H1640.19V906.52H1656.99V914.56C1659.15 911.76 1661.91 909.56 1665.27 907.96C1668.71 906.36 1672.47 905.56 1676.55 905.56C1681.75 905.56 1686.39 906.68 1690.47 908.92C1694.55 911.08 1697.71 914.2 1699.95 918.28C1702.11 914.44 1705.23 911.36 1709.31 909.04C1713.47 906.72 1717.95 905.56 1722.75 905.56ZM1782.73 916.12C1784.89 913.08 1787.85 910.56 1791.61 908.56C1795.45 906.48 1799.81 905.44 1804.69 905.44C1810.37 905.44 1815.49 906.84 1820.05 909.64C1824.69 912.44 1828.33 916.44 1830.97 921.64C1833.69 926.76 1835.05 932.72 1835.05 939.52C1835.05 946.32 1833.69 952.36 1830.97 957.64C1828.33 962.84 1824.69 966.88 1820.05 969.76C1815.49 972.64 1810.37 974.08 1804.69 974.08C1799.81 974.08 1795.49 973.08 1791.73 971.08C1788.05 969.08 1785.05 966.56 1782.73 963.52V1004.68H1765.93V906.52H1782.73V916.12ZM1817.89 939.52C1817.89 935.52 1817.05 932.08 1815.37 929.2C1813.77 926.24 1811.61 924 1808.89 922.48C1806.25 920.96 1803.37 920.2 1800.25 920.2C1797.21 920.2 1794.33 921 1791.61 922.6C1788.97 924.12 1786.81 926.36 1785.13 929.32C1783.53 932.28 1782.73 935.76 1782.73 939.76C1782.73 943.76 1783.53 947.24 1785.13 950.2C1786.81 953.16 1788.97 955.44 1791.61 957.04C1794.33 958.56 1797.21 959.32 1800.25 959.32C1803.37 959.32 1806.25 958.52 1808.89 956.92C1811.61 955.32 1813.77 953.04 1815.37 950.08C1817.05 947.12 1817.89 943.6 1817.89 939.52ZM1910.02 906.52V973H1893.1V964.6C1890.94 967.48 1888.1 969.76 1884.58 971.44C1881.14 973.04 1877.38 973.84 1873.3 973.84C1868.1 973.84 1863.5 972.76 1859.5 970.6C1855.5 968.36 1852.34 965.12 1850.02 960.88C1847.78 956.56 1846.66 951.44 1846.66 945.52V906.52H1863.46V943.12C1863.46 948.4 1864.78 952.48 1867.42 955.36C1870.06 958.16 1873.66 959.56 1878.22 959.56C1882.86 959.56 1886.5 958.16 1889.14 955.36C1891.78 952.48 1893.1 948.4 1893.1 943.12V906.52H1910.02ZM1943.39 884.2V973H1926.59V884.2H1943.39ZM2053.02 973L2043.9 964C2036.14 970.96 2026.66 974.44 2015.46 974.44C2009.3 974.44 2003.86 973.4 1999.14 971.32C1994.5 969.16 1990.9 966.16 1988.34 962.32C1985.78 958.4 1984.5 953.88 1984.5 948.76C1984.5 943.24 1986.06 938.28 1989.18 933.88C1992.3 929.48 1996.9 925.92 2002.98 923.2C2000.82 920.56 1999.26 918.04 1998.3 915.64C1997.34 913.16 1996.86 910.52 1996.86 907.72C1996.86 903.88 1997.86 900.44 1999.86 897.4C2001.86 894.28 2004.7 891.84 2008.38 890.08C2012.14 888.32 2016.5 887.44 2021.46 887.44C2026.5 887.44 2030.82 888.4 2034.42 890.32C2038.02 892.24 2040.7 894.8 2042.46 898C2044.22 901.2 2044.98 904.76 2044.74 908.68H2028.42C2028.5 906.04 2027.86 904.04 2026.5 902.68C2025.14 901.24 2023.3 900.52 2020.98 900.52C2018.74 900.52 2016.86 901.2 2015.34 902.56C2013.9 903.84 2013.18 905.52 2013.18 907.6C2013.18 909.6 2013.78 911.6 2014.98 913.6C2016.18 915.52 2018.14 917.92 2020.86 920.8L2041.98 941.68C2042.14 941.52 2042.26 941.36 2042.34 941.2C2042.42 941.04 2042.5 940.88 2042.58 940.72L2049.42 929.32H2066.94L2058.54 944.08C2056.94 947.2 2055.22 950.16 2053.38 952.96L2073.66 973H2053.02ZM2015.94 960.52C2022.5 960.52 2028.3 958.2 2033.34 953.56L2012.7 933.16C2004.94 936.6 2001.06 941.48 2001.06 947.8C2001.06 951.4 2002.42 954.44 2005.14 956.92C2007.86 959.32 2011.46 960.52 2015.94 960.52ZM2106.26 939.76C2106.26 932.88 2107.66 926.88 2110.46 921.76C2113.26 916.56 2117.14 912.56 2122.1 909.76C2127.06 906.88 2132.74 905.44 2139.14 905.44C2147.38 905.44 2154.18 907.52 2159.54 911.68C2164.98 915.76 2168.62 921.52 2170.46 928.96H2152.34C2151.38 926.08 2149.74 923.84 2147.42 922.24C2145.18 920.56 2142.38 919.72 2139.02 919.72C2134.22 919.72 2130.42 921.48 2127.62 925C2124.82 928.44 2123.42 933.36 2123.42 939.76C2123.42 946.08 2124.82 951 2127.62 954.52C2130.42 957.96 2134.22 959.68 2139.02 959.68C2145.82 959.68 2150.26 956.64 2152.34 950.56H2170.46C2168.62 957.76 2164.98 963.48 2159.54 967.72C2154.1 971.96 2147.3 974.08 2139.14 974.08C2132.74 974.08 2127.06 972.68 2122.1 969.88C2117.14 967 2113.26 963 2110.46 957.88C2107.66 952.68 2106.26 946.64 2106.26 939.76ZM2178.44 939.52C2178.44 932.8 2179.76 926.84 2182.4 921.64C2185.12 916.44 2188.76 912.44 2193.32 909.64C2197.96 906.84 2203.12 905.44 2208.8 905.44C2213.76 905.44 2218.08 906.44 2221.76 908.44C2225.52 910.44 2228.52 912.96 2230.76 916V906.52H2247.68V973H2230.76V963.28C2228.6 966.4 2225.6 969 2221.76 971.08C2218 973.08 2213.64 974.08 2208.68 974.08C2203.08 974.08 2197.96 972.64 2193.32 969.76C2188.76 966.88 2185.12 962.84 2182.4 957.64C2179.76 952.36 2178.44 946.32 2178.44 939.52ZM2230.76 939.76C2230.76 935.68 2229.96 932.2 2228.36 929.32C2226.76 926.36 2224.6 924.12 2221.88 922.6C2219.16 921 2216.24 920.2 2213.12 920.2C2210 920.2 2207.12 920.96 2204.48 922.48C2201.84 924 2199.68 926.24 2198 929.2C2196.4 932.08 2195.6 935.52 2195.6 939.52C2195.6 943.52 2196.4 947.04 2198 950.08C2199.68 953.04 2201.84 955.32 2204.48 956.92C2207.2 958.52 2210.08 959.32 2213.12 959.32C2216.24 959.32 2219.16 958.56 2221.88 957.04C2224.6 955.44 2226.76 953.2 2228.36 950.32C2229.96 947.36 2230.76 943.84 2230.76 939.76ZM2280.89 916.84C2283.05 913.32 2285.85 910.56 2289.29 908.56C2292.81 906.56 2296.81 905.56 2301.29 905.56V923.2H2296.85C2291.57 923.2 2287.57 924.44 2284.85 926.92C2282.21 929.4 2280.89 933.72 2280.89 939.88V973H2264.09V906.52H2280.89V916.84ZM2321.13 898.6C2318.17 898.6 2315.69 897.68 2313.69 895.84C2311.77 893.92 2310.81 891.56 2310.81 888.76C2310.81 885.96 2311.77 883.64 2313.69 881.8C2315.69 879.88 2318.17 878.92 2321.13 878.92C2324.09 878.92 2326.53 879.88 2328.45 881.8C2330.45 883.64 2331.45 885.96 2331.45 888.76C2331.45 891.56 2330.45 893.92 2328.45 895.84C2326.53 897.68 2324.09 898.6 2321.13 898.6ZM2329.41 906.52V973H2312.61V906.52H2329.41ZM2391.4 916.24C2393.56 913.04 2396.52 910.44 2400.28 908.44C2404.12 906.44 2408.48 905.44 2413.36 905.44C2419.04 905.44 2424.16 906.84 2428.72 909.64C2433.36 912.44 2437 916.44 2439.64 921.64C2442.36 926.76 2443.72 932.72 2443.72 939.52C2443.72 946.32 2442.36 952.36 2439.64 957.64C2437 962.84 2433.36 966.88 2428.72 969.76C2424.16 972.64 2419.04 974.08 2413.36 974.08C2408.4 974.08 2404.04 973.12 2400.28 971.2C2396.6 969.2 2393.64 966.64 2391.4 963.52V973H2374.6V884.2H2391.4V916.24ZM2426.56 939.52C2426.56 935.52 2425.72 932.08 2424.04 929.2C2422.44 926.24 2420.28 924 2417.56 922.48C2414.92 920.96 2412.04 920.2 2408.92 920.2C2405.88 920.2 2403 921 2400.28 922.6C2397.64 924.12 2395.48 926.36 2393.8 929.32C2392.2 932.28 2391.4 935.76 2391.4 939.76C2391.4 943.76 2392.2 947.24 2393.8 950.2C2395.48 953.16 2397.64 955.44 2400.28 957.04C2403 958.56 2405.88 959.32 2408.92 959.32C2412.04 959.32 2414.92 958.52 2417.56 956.92C2420.28 955.32 2422.44 953.04 2424.04 950.08C2425.72 947.12 2426.56 943.6 2426.56 939.52ZM2517.73 938.32C2517.73 940.72 2517.57 942.88 2517.25 944.8H2468.65C2469.05 949.6 2470.73 953.36 2473.69 956.08C2476.65 958.8 2480.29 960.16 2484.61 960.16C2490.85 960.16 2495.29 957.48 2497.93 952.12H2516.05C2514.13 958.52 2510.45 963.8 2505.01 967.96C2499.57 972.04 2492.89 974.08 2484.97 974.08C2478.57 974.08 2472.81 972.68 2467.69 969.88C2462.65 967 2458.69 962.96 2455.81 957.76C2453.01 952.56 2451.61 946.56 2451.61 939.76C2451.61 932.88 2453.01 926.84 2455.81 921.64C2458.61 916.44 2462.53 912.44 2467.57 909.64C2472.61 906.84 2478.41 905.44 2484.97 905.44C2491.29 905.44 2496.93 906.8 2501.89 909.52C2506.93 912.24 2510.81 916.12 2513.53 921.16C2516.33 926.12 2517.73 931.84 2517.73 938.32ZM2500.33 933.52C2500.25 929.2 2498.69 925.76 2495.65 923.2C2492.61 920.56 2488.89 919.24 2484.49 919.24C2480.33 919.24 2476.81 920.52 2473.93 923.08C2471.13 925.56 2469.41 929.04 2468.77 933.52H2500.33ZM2546.79 916.84C2548.95 913.32 2551.75 910.56 2555.19 908.56C2558.71 906.56 2562.71 905.56 2567.19 905.56V923.2H2562.75C2557.47 923.2 2553.47 924.44 2550.75 926.92C2548.11 929.4 2546.79 933.72 2546.79 939.88V973H2529.99V906.52H2546.79V916.84ZM2617.87 973L2595.31 944.68V973H2578.51V884.2H2595.31V934.72L2617.63 906.52H2639.47L2610.19 939.88L2639.71 973H2617.87ZM2644.26 939.52C2644.26 932.8 2645.58 926.84 2648.22 921.64C2650.94 916.44 2654.58 912.44 2659.14 909.64C2663.78 906.84 2668.94 905.44 2674.62 905.44C2679.58 905.44 2683.9 906.44 2687.58 908.44C2691.34 910.44 2694.34 912.96 2696.58 916V906.52H2713.5V973H2696.58V963.28C2694.42 966.4 2691.42 969 2687.58 971.08C2683.82 973.08 2679.46 974.08 2674.5 974.08C2668.9 974.08 2663.78 972.64 2659.14 969.76C2654.58 966.88 2650.94 962.84 2648.22 957.64C2645.58 952.36 2644.26 946.32 2644.26 939.52ZM2696.58 939.76C2696.58 935.68 2695.78 932.2 2694.18 929.32C2692.58 926.36 2690.42 924.12 2687.7 922.6C2684.98 921 2682.06 920.2 2678.94 920.2C2675.82 920.2 2672.94 920.96 2670.3 922.48C2667.66 924 2665.5 926.24 2663.82 929.2C2662.22 932.08 2661.42 935.52 2661.42 939.52C2661.42 943.52 2662.22 947.04 2663.82 950.08C2665.5 953.04 2667.66 955.32 2670.3 956.92C2673.02 958.52 2675.9 959.32 2678.94 959.32C2682.06 959.32 2684.98 958.56 2687.7 957.04C2690.42 955.44 2692.58 953.2 2694.18 950.32C2695.78 947.36 2696.58 943.84 2696.58 939.76ZM2755.35 974.08C2749.91 974.08 2745.03 973.12 2740.71 971.2C2736.39 969.2 2732.95 966.52 2730.39 963.16C2727.91 959.8 2726.55 956.08 2726.31 952H2743.23C2743.55 954.56 2744.79 956.68 2746.95 958.36C2749.19 960.04 2751.95 960.88 2755.23 960.88C2758.43 960.88 2760.91 960.24 2762.67 958.96C2764.51 957.68 2765.43 956.04 2765.43 954.04C2765.43 951.88 2764.31 950.28 2762.07 949.24C2759.91 948.12 2756.43 946.92 2751.63 945.64C2746.67 944.44 2742.59 943.2 2739.39 941.92C2736.27 940.64 2733.55 938.68 2731.23 936.04C2728.99 933.4 2727.87 929.84 2727.87 925.36C2727.87 921.68 2728.91 918.32 2730.99 915.28C2733.15 912.24 2736.19 909.84 2740.11 908.08C2744.11 906.32 2748.79 905.44 2754.15 905.44C2762.07 905.44 2768.39 907.44 2773.11 911.44C2777.83 915.36 2780.43 920.68 2780.91 927.4H2764.83C2764.59 924.76 2763.47 922.68 2761.47 921.16C2759.55 919.56 2756.95 918.76 2753.67 918.76C2750.63 918.76 2748.27 919.32 2746.59 920.44C2744.99 921.56 2744.19 923.12 2744.19 925.12C2744.19 927.36 2745.31 929.08 2747.55 930.28C2749.79 931.4 2753.27 932.56 2757.99 933.76C2762.79 934.96 2766.75 936.2 2769.87 937.48C2772.99 938.76 2775.67 940.76 2777.91 943.48C2780.23 946.12 2781.43 949.64 2781.51 954.04C2781.51 957.88 2780.43 961.32 2778.27 964.36C2776.19 967.4 2773.15 969.8 2769.15 971.56C2765.23 973.24 2760.63 974.08 2755.35 974.08ZM2853.42 974.08C2847.02 974.08 2841.26 972.68 2836.14 969.88C2831.02 967 2826.98 962.96 2824.02 957.76C2821.14 952.56 2819.7 946.56 2819.7 939.76C2819.7 932.96 2821.18 926.96 2824.14 921.76C2827.18 916.56 2831.3 912.56 2836.5 909.76C2841.7 906.88 2847.5 905.44 2853.9 905.44C2860.3 905.44 2866.1 906.88 2871.3 909.76C2876.5 912.56 2880.58 916.56 2883.54 921.76C2886.58 926.96 2888.1 932.96 2888.1 939.76C2888.1 946.56 2886.54 952.56 2883.42 957.76C2880.38 962.96 2876.22 967 2870.94 969.88C2865.74 972.68 2859.9 974.08 2853.42 974.08ZM2853.42 959.44C2856.46 959.44 2859.3 958.72 2861.94 957.28C2864.66 955.76 2866.82 953.52 2868.42 950.56C2870.02 947.6 2870.82 944 2870.82 939.76C2870.82 933.44 2869.14 928.6 2865.78 925.24C2862.5 921.8 2858.46 920.08 2853.66 920.08C2848.86 920.08 2844.82 921.8 2841.54 925.24C2838.34 928.6 2836.74 933.44 2836.74 939.76C2836.74 946.08 2838.3 950.96 2841.42 954.4C2844.62 957.76 2848.62 959.44 2853.42 959.44ZM2937.26 905.56C2945.18 905.56 2951.58 908.08 2956.46 913.12C2961.34 918.08 2963.78 925.04 2963.78 934V973H2946.98V936.28C2946.98 931 2945.66 926.96 2943.02 924.16C2940.38 921.28 2936.78 919.84 2932.22 919.84C2927.58 919.84 2923.9 921.28 2921.18 924.16C2918.54 926.96 2917.22 931 2917.22 936.28V973H2900.42V906.52H2917.22V914.8C2919.46 911.92 2922.3 909.68 2925.74 908.08C2929.26 906.4 2933.1 905.56 2937.26 905.56ZM2996.56 884.2V973H2979.76V884.2H2996.56ZM3021.68 898.6C3018.72 898.6 3016.24 897.68 3014.24 895.84C3012.32 893.92 3011.36 891.56 3011.36 888.76C3011.36 885.96 3012.32 883.64 3014.24 881.8C3016.24 879.88 3018.72 878.92 3021.68 878.92C3024.64 878.92 3027.08 879.88 3029 881.8C3031 883.64 3032 885.96 3032 888.76C3032 891.56 3031 893.92 3029 895.84C3027.08 897.68 3024.64 898.6 3021.68 898.6ZM3029.96 906.52V973H3013.16V906.52H3029.96ZM3083.39 905.56C3091.31 905.56 3097.71 908.08 3102.59 913.12C3107.47 918.08 3109.91 925.04 3109.91 934V973H3093.11V936.28C3093.11 931 3091.79 926.96 3089.15 924.16C3086.51 921.28 3082.91 919.84 3078.35 919.84C3073.71 919.84 3070.03 921.28 3067.31 924.16C3064.67 926.96 3063.35 931 3063.35 936.28V973H3046.55V906.52H3063.35V914.8C3065.59 911.92 3068.43 909.68 3071.87 908.08C3075.39 906.4 3079.23 905.56 3083.39 905.56ZM3187.69 938.32C3187.69 940.72 3187.53 942.88 3187.21 944.8H3138.61C3139.01 949.6 3140.69 953.36 3143.65 956.08C3146.61 958.8 3150.25 960.16 3154.57 960.16C3160.81 960.16 3165.25 957.48 3167.89 952.12H3186.01C3184.09 958.52 3180.41 963.8 3174.97 967.96C3169.53 972.04 3162.85 974.08 3154.93 974.08C3148.53 974.08 3142.77 972.68 3137.65 969.88C3132.61 967 3128.65 962.96 3125.77 957.76C3122.97 952.56 3121.57 946.56 3121.57 939.76C3121.57 932.88 3122.97 926.84 3125.77 921.64C3128.57 916.44 3132.49 912.44 3137.53 909.64C3142.57 906.84 3148.37 905.44 3154.93 905.44C3161.25 905.44 3166.89 906.8 3171.85 909.52C3176.89 912.24 3180.77 916.12 3183.49 921.16C3186.29 926.12 3187.69 931.84 3187.69 938.32ZM3170.29 933.52C3170.21 929.2 3168.65 925.76 3165.61 923.2C3162.57 920.56 3158.85 919.24 3154.45 919.24C3150.29 919.24 3146.77 920.52 3143.89 923.08C3141.09 925.56 3139.37 929.04 3138.73 933.52H3170.29ZM3224.23 939.52C3224.23 932.8 3225.55 926.84 3228.19 921.64C3230.91 916.44 3234.55 912.44 3239.11 909.64C3243.75 906.84 3248.91 905.44 3254.59 905.44C3259.55 905.44 3263.87 906.44 3267.55 908.44C3271.31 910.44 3274.31 912.96 3276.55 916V906.52H3293.47V973H3276.55V963.28C3274.39 966.4 3271.39 969 3267.55 971.08C3263.79 973.08 3259.43 974.08 3254.47 974.08C3248.87 974.08 3243.75 972.64 3239.11 969.76C3234.55 966.88 3230.91 962.84 3228.19 957.64C3225.55 952.36 3224.23 946.32 3224.23 939.52ZM3276.55 939.76C3276.55 935.68 3275.75 932.2 3274.15 929.32C3272.55 926.36 3270.39 924.12 3267.67 922.6C3264.95 921 3262.03 920.2 3258.91 920.2C3255.79 920.2 3252.91 920.96 3250.27 922.48C3247.63 924 3245.47 926.24 3243.79 929.2C3242.19 932.08 3241.39 935.52 3241.39 939.52C3241.39 943.52 3242.19 947.04 3243.79 950.08C3245.47 953.04 3247.63 955.32 3250.27 956.92C3252.99 958.52 3255.87 959.32 3258.91 959.32C3262.03 959.32 3264.95 958.56 3267.67 957.04C3270.39 955.44 3272.55 953.2 3274.15 950.32C3275.75 947.36 3276.55 943.84 3276.55 939.76ZM3346.71 905.56C3354.63 905.56 3361.03 908.08 3365.91 913.12C3370.79 918.08 3373.23 925.04 3373.23 934V973H3356.43V936.28C3356.43 931 3355.11 926.96 3352.47 924.16C3349.83 921.28 3346.23 919.84 3341.67 919.84C3337.03 919.84 3333.35 921.28 3330.63 924.16C3327.99 926.96 3326.67 931 3326.67 936.28V973H3309.87V906.52H3326.67V914.8C3328.91 911.92 3331.75 909.68 3335.19 908.08C3338.71 906.4 3342.55 905.56 3346.71 905.56ZM3384.89 939.52C3384.89 932.8 3386.21 926.84 3388.85 921.64C3391.57 916.44 3395.25 912.44 3399.89 909.64C3404.53 906.84 3409.69 905.44 3415.37 905.44C3419.69 905.44 3423.81 906.4 3427.73 908.32C3431.65 910.16 3434.77 912.64 3437.09 915.76V884.2H3454.13V973H3437.09V963.16C3435.01 966.44 3432.09 969.08 3428.33 971.08C3424.57 973.08 3420.21 974.08 3415.25 974.08C3409.65 974.08 3404.53 972.64 3399.89 969.76C3395.25 966.88 3391.57 962.84 3388.85 957.64C3386.21 952.36 3384.89 946.32 3384.89 939.52ZM3437.21 939.76C3437.21 935.68 3436.41 932.2 3434.81 929.32C3433.21 926.36 3431.05 924.12 3428.33 922.6C3425.61 921 3422.69 920.2 3419.57 920.2C3416.45 920.2 3413.57 920.96 3410.93 922.48C3408.29 924 3406.13 926.24 3404.45 929.2C3402.85 932.08 3402.05 935.52 3402.05 939.52C3402.05 943.52 3402.85 947.04 3404.45 950.08C3406.13 953.04 3408.29 955.32 3410.93 956.92C3413.65 958.52 3416.53 959.32 3419.57 959.32C3422.69 959.32 3425.61 958.56 3428.33 957.04C3431.05 955.44 3433.21 953.2 3434.81 950.32C3436.41 947.36 3437.21 943.84 3437.21 939.76ZM3466.22 939.52C3466.22 932.8 3467.54 926.84 3470.18 921.64C3472.9 916.44 3476.54 912.44 3481.1 909.64C3485.74 906.84 3490.9 905.44 3496.58 905.44C3501.54 905.44 3505.86 906.44 3509.54 908.44C3513.3 910.44 3516.3 912.96 3518.54 916V906.52H3535.46V973H3518.54V963.28C3516.38 966.4 3513.38 969 3509.54 971.08C3505.78 973.08 3501.42 974.08 3496.46 974.08C3490.86 974.08 3485.74 972.64 3481.1 969.76C3476.54 966.88 3472.9 962.84 3470.18 957.64C3467.54 952.36 3466.22 946.32 3466.22 939.52ZM3518.54 939.76C3518.54 935.68 3517.74 932.2 3516.14 929.32C3514.54 926.36 3512.38 924.12 3509.66 922.6C3506.94 921 3504.02 920.2 3500.9 920.2C3497.78 920.2 3494.9 920.96 3492.26 922.48C3489.62 924 3487.46 926.24 3485.78 929.2C3484.18 932.08 3483.38 935.52 3483.38 939.52C3483.38 943.52 3484.18 947.04 3485.78 950.08C3487.46 953.04 3489.62 955.32 3492.26 956.92C3494.98 958.52 3497.86 959.32 3500.9 959.32C3504.02 959.32 3506.94 958.56 3509.66 957.04C3512.38 955.44 3514.54 953.2 3516.14 950.32C3517.74 947.36 3518.54 943.84 3518.54 939.76ZM3573.59 887.8L3571.67 945.76H3557.51L3555.47 887.8H3573.59ZM3564.95 973.84C3561.91 973.84 3559.39 972.92 3557.39 971.08C3555.47 969.16 3554.51 966.8 3554.51 964C3554.51 961.2 3555.47 958.88 3557.39 957.04C3559.39 955.12 3561.91 954.16 3564.95 954.16C3567.91 954.16 3570.35 955.12 3572.27 957.04C3574.19 958.88 3575.15 961.2 3575.15 964C3575.15 966.8 3574.19 969.16 3572.27 971.08C3570.35 972.92 3567.91 973.84 3564.95 973.84Z" fill="#FF0000"/>
<path d="M774.333 994.333C982.729 994.333 1151.67 829.723 1151.67 626.667C1151.67 423.61 982.729 259 774.333 259C565.938 259 397 423.61 397 626.667C397 829.723 565.938 994.333 774.333 994.333Z" stroke="black" stroke-width="100" stroke-linecap="round" stroke-linejoin="round"/>
<path d="M1270 1144L1061 931" stroke="black" stroke-width="100" stroke-linecap="round" stroke-linejoin="round"/>
<rect x="427" y="278" width="700" height="700" rx="350" fill="#FF0000"/>
<path d="M1045.5 730.667V523.333C1045.49 514.244 1042.7 505.316 1037.4 497.447C1032.11 489.577 1024.5 483.042 1015.33 478.497L804.167 374.831C794.995 370.281 784.591 367.886 774 367.886C763.409 367.886 753.005 370.281 743.833 374.831L532.667 478.497C523.504 483.042 515.893 489.577 510.599 497.447C505.304 505.316 502.511 514.244 502.5 523.333V730.667C502.511 739.756 505.304 748.684 510.599 756.553C515.893 764.423 523.504 770.958 532.667 775.502L743.833 879.169C753.005 883.718 763.409 886.114 774 886.114C784.591 886.114 794.995 883.718 804.167 879.169L1015.33 775.502C1024.5 770.958 1032.11 764.423 1037.4 756.553C1042.7 748.684 1045.49 739.756 1045.5 730.667Z" stroke="white" stroke-width="30" stroke-linecap="round" stroke-linejoin="round"/>
<path d="M510.645 496.38L774 627.259L1037.35 496.38" stroke="white" stroke-width="30" stroke-linecap="round" stroke-linejoin="round"/>
<path d="M774 888.24V627" stroke="white" stroke-width="30" stroke-linecap="round" stroke-linejoin="round"/>
<rect x="1748" y="301" width="97" height="88" fill="#FF0000"/>
</svg>
