<svg width="3296" height="1103" viewBox="0 0 3296 1103" fill="none" xmlns="http://www.w3.org/2000/svg">
<path d="M1293 646.5C1252 646.5 1218.33 636.833 1192 617.5C1165.67 597.833 1151.5 569.833 1149.5 533.5H1254C1255 545.833 1258.67 554.833 1265 560.5C1271.33 566.167 1279.5 569 1289.5 569C1298.5 569 1305.83 566.833 1311.5 562.5C1317.5 557.833 1320.5 551.5 1320.5 543.5C1320.5 533.167 1315.67 525.167 1306 519.5C1296.33 513.833 1280.67 507.5 1259 500.5C1236 492.833 1217.33 485.5 1203 478.5C1189 471.167 1176.67 460.667 1166 447C1155.67 433 1150.5 414.833 1150.5 392.5C1150.5 369.833 1156.17 350.5 1167.5 334.5C1178.83 318.167 1194.5 305.833 1214.5 297.5C1234.5 289.167 1257.17 285 1282.5 285C1323.5 285 1356.17 294.667 1380.5 314C1405.17 333 1418.33 359.833 1420 394.5H1313.5C1313.17 383.833 1309.83 375.833 1303.5 370.5C1297.5 365.167 1289.67 362.5 1280 362.5C1272.67 362.5 1266.67 364.667 1262 369C1257.33 373.333 1255 379.5 1255 387.5C1255 394.167 1257.5 400 1262.5 405C1267.83 409.667 1274.33 413.833 1282 417.5C1289.67 420.833 1301 425.167 1316 430.5C1338.33 438.167 1356.67 445.833 1371 453.5C1385.67 460.833 1398.17 471.333 1408.5 485C1419.17 498.333 1424.5 515.333 1424.5 536C1424.5 557 1419.17 575.833 1408.5 592.5C1398.17 609.167 1383 622.333 1363 632C1343.33 641.667 1320 646.5 1293 646.5ZM1568.06 290.5V643H1470.06V290.5H1568.06ZM1848.87 462C1869.53 466.667 1885.87 477 1897.87 493C1910.2 508.667 1916.37 526.667 1916.37 547C1916.37 577 1906.03 600.5 1885.37 617.5C1864.7 634.5 1835.7 643 1798.37 643H1623.87V290.5H1792.87C1828.87 290.5 1857.03 298.5 1877.37 314.5C1898.03 330.5 1908.37 353 1908.37 382C1908.37 402.667 1902.87 420 1891.87 434C1881.2 447.667 1866.87 457 1848.87 462ZM1721.87 430.5H1771.37C1796.03 430.5 1808.37 420.333 1808.37 400C1808.37 379 1796.03 368.5 1771.37 368.5H1721.87V430.5ZM1778.87 564C1803.53 564 1815.87 553.667 1815.87 533C1815.87 522.333 1812.53 514.167 1805.87 508.5C1799.53 502.833 1790.37 500 1778.37 500H1721.87V564H1778.87ZM2057.32 369V426.5H2169.82V501H2057.32V564.5H2184.82V643H1959.32V290.5H2184.82V369H2057.32ZM2411.74 643L2341.74 513H2331.24V643H2233.24V290.5H2387.74C2416.08 290.5 2440.08 295.5 2459.74 305.5C2479.41 315.167 2494.24 328.667 2504.24 346C2514.24 363 2519.24 382.167 2519.24 403.5C2519.24 427.5 2512.58 448.667 2499.24 467C2486.24 485 2467.08 497.833 2441.74 505.5L2521.24 643H2411.74ZM2331.24 446H2379.74C2393.08 446 2403.08 442.833 2409.74 436.5C2416.41 430.167 2419.74 421 2419.74 409C2419.74 397.667 2416.24 388.833 2409.24 382.5C2402.58 375.833 2392.74 372.5 2379.74 372.5H2331.24V446ZM2829.31 290.5V368.5H2735.31V643H2637.31V368.5H2544.31V290.5H2829.31ZM3088.57 585.5H2963.57L2944.57 643H2841.57L2970.07 290.5H3083.07L3211.07 643H3107.57L3088.57 585.5ZM3064.07 510.5L3026.07 396.5L2988.57 510.5H3064.07Z" fill="white"/>
<path d="M1248.56 807L1218.08 769.68V807H1201.28V723.24H1218.08V760.8L1248.56 723.24H1268.84L1234.28 764.76L1269.8 807H1248.56ZM1343.61 740.52V807H1326.69V798.6C1324.53 801.48 1321.69 803.76 1318.17 805.44C1314.73 807.04 1310.97 807.84 1306.89 807.84C1301.69 807.84 1297.09 806.76 1293.09 804.6C1289.09 802.36 1285.93 799.12 1283.61 794.88C1281.37 790.56 1280.25 785.44 1280.25 779.52V740.52H1297.05V777.12C1297.05 782.4 1298.37 786.48 1301.01 789.36C1303.65 792.16 1307.25 793.56 1311.81 793.56C1316.45 793.56 1320.09 792.16 1322.73 789.36C1325.37 786.48 1326.69 782.4 1326.69 777.12V740.52H1343.61ZM1442.75 739.56C1450.91 739.56 1457.47 742.08 1462.43 747.12C1467.47 752.08 1469.99 759.04 1469.99 768V807H1453.19V770.28C1453.19 765.08 1451.87 761.12 1449.23 758.4C1446.59 755.6 1442.99 754.2 1438.43 754.2C1433.87 754.2 1430.23 755.6 1427.51 758.4C1424.87 761.12 1423.55 765.08 1423.55 770.28V807H1406.75V770.28C1406.75 765.08 1405.43 761.12 1402.79 758.4C1400.15 755.6 1396.55 754.2 1391.99 754.2C1387.35 754.2 1383.67 755.6 1380.95 758.4C1378.31 761.12 1376.99 765.08 1376.99 770.28V807H1360.19V740.52H1376.99V748.56C1379.15 745.76 1381.91 743.56 1385.27 741.96C1388.71 740.36 1392.47 739.56 1396.55 739.56C1401.75 739.56 1406.39 740.68 1410.47 742.92C1414.55 745.08 1417.71 748.2 1419.95 752.28C1422.11 748.44 1425.23 745.36 1429.31 743.04C1433.47 740.72 1437.95 739.56 1442.75 739.56ZM1502.73 750.12C1504.89 747.08 1507.85 744.56 1511.61 742.56C1515.45 740.48 1519.81 739.44 1524.69 739.44C1530.37 739.44 1535.49 740.84 1540.05 743.64C1544.69 746.44 1548.33 750.44 1550.97 755.64C1553.69 760.76 1555.05 766.72 1555.05 773.52C1555.05 780.32 1553.69 786.36 1550.97 791.64C1548.33 796.84 1544.69 800.88 1540.05 803.76C1535.49 806.64 1530.37 808.08 1524.69 808.08C1519.81 808.08 1515.49 807.08 1511.73 805.08C1508.05 803.08 1505.05 800.56 1502.73 797.52V838.68H1485.93V740.52H1502.73V750.12ZM1537.89 773.52C1537.89 769.52 1537.05 766.08 1535.37 763.2C1533.77 760.24 1531.61 758 1528.89 756.48C1526.25 754.96 1523.37 754.2 1520.25 754.2C1517.21 754.2 1514.33 755 1511.61 756.6C1508.97 758.12 1506.81 760.36 1505.13 763.32C1503.53 766.28 1502.73 769.76 1502.73 773.76C1502.73 777.76 1503.53 781.24 1505.13 784.2C1506.81 787.16 1508.97 789.44 1511.61 791.04C1514.33 792.56 1517.21 793.32 1520.25 793.32C1523.37 793.32 1526.25 792.52 1528.89 790.92C1531.61 789.32 1533.77 787.04 1535.37 784.08C1537.05 781.12 1537.89 777.6 1537.89 773.52ZM1630.02 740.52V807H1613.1V798.6C1610.94 801.48 1608.1 803.76 1604.58 805.44C1601.14 807.04 1597.38 807.84 1593.3 807.84C1588.1 807.84 1583.5 806.76 1579.5 804.6C1575.5 802.36 1572.34 799.12 1570.02 794.88C1567.78 790.56 1566.66 785.44 1566.66 779.52V740.52H1583.46V777.12C1583.46 782.4 1584.78 786.48 1587.42 789.36C1590.06 792.16 1593.66 793.56 1598.22 793.56C1602.86 793.56 1606.5 792.16 1609.14 789.36C1611.78 786.48 1613.1 782.4 1613.1 777.12V740.52H1630.02ZM1663.39 718.2V807H1646.59V718.2H1663.39ZM1773.02 807L1763.9 798C1756.14 804.96 1746.66 808.44 1735.46 808.44C1729.3 808.44 1723.86 807.4 1719.14 805.32C1714.5 803.16 1710.9 800.16 1708.34 796.32C1705.78 792.4 1704.5 787.88 1704.5 782.76C1704.5 777.24 1706.06 772.28 1709.18 767.88C1712.3 763.48 1716.9 759.92 1722.98 757.2C1720.82 754.56 1719.26 752.04 1718.3 749.64C1717.34 747.16 1716.86 744.52 1716.86 741.72C1716.86 737.88 1717.86 734.44 1719.86 731.4C1721.86 728.28 1724.7 725.84 1728.38 724.08C1732.14 722.32 1736.5 721.44 1741.46 721.44C1746.5 721.44 1750.82 722.4 1754.42 724.32C1758.02 726.24 1760.7 728.8 1762.46 732C1764.22 735.2 1764.98 738.76 1764.74 742.68H1748.42C1748.5 740.04 1747.86 738.04 1746.5 736.68C1745.14 735.24 1743.3 734.52 1740.98 734.52C1738.74 734.52 1736.86 735.2 1735.34 736.56C1733.9 737.84 1733.18 739.52 1733.18 741.6C1733.18 743.6 1733.78 745.6 1734.98 747.6C1736.18 749.52 1738.14 751.92 1740.86 754.8L1761.98 775.68C1762.14 775.52 1762.26 775.36 1762.34 775.2C1762.42 775.04 1762.5 774.88 1762.58 774.72L1769.42 763.32H1786.94L1778.54 778.08C1776.94 781.2 1775.22 784.16 1773.38 786.96L1793.66 807H1773.02ZM1735.94 794.52C1742.5 794.52 1748.3 792.2 1753.34 787.56L1732.7 767.16C1724.94 770.6 1721.06 775.48 1721.06 781.8C1721.06 785.4 1722.42 788.44 1725.14 790.92C1727.86 793.32 1731.46 794.52 1735.94 794.52ZM1826.26 773.76C1826.26 766.88 1827.66 760.88 1830.46 755.76C1833.26 750.56 1837.14 746.56 1842.1 743.76C1847.06 740.88 1852.74 739.44 1859.14 739.44C1867.38 739.44 1874.18 741.52 1879.54 745.68C1884.98 749.76 1888.62 755.52 1890.46 762.96H1872.34C1871.38 760.08 1869.74 757.84 1867.42 756.24C1865.18 754.56 1862.38 753.72 1859.02 753.72C1854.22 753.72 1850.42 755.48 1847.62 759C1844.82 762.44 1843.42 767.36 1843.42 773.76C1843.42 780.08 1844.82 785 1847.62 788.52C1850.42 791.96 1854.22 793.68 1859.02 793.68C1865.82 793.68 1870.26 790.64 1872.34 784.56H1890.46C1888.62 791.76 1884.98 797.48 1879.54 801.72C1874.1 805.96 1867.3 808.08 1859.14 808.08C1852.74 808.08 1847.06 806.68 1842.1 803.88C1837.14 801 1833.26 797 1830.46 791.88C1827.66 786.68 1826.26 780.64 1826.26 773.76ZM1898.44 773.52C1898.44 766.8 1899.76 760.84 1902.4 755.64C1905.12 750.44 1908.76 746.44 1913.32 743.64C1917.96 740.84 1923.12 739.44 1928.8 739.44C1933.76 739.44 1938.08 740.44 1941.76 742.44C1945.52 744.44 1948.52 746.96 1950.76 750V740.52H1967.68V807H1950.76V797.28C1948.6 800.4 1945.6 803 1941.76 805.08C1938 807.08 1933.64 808.08 1928.68 808.08C1923.08 808.08 1917.96 806.64 1913.32 803.76C1908.76 800.88 1905.12 796.84 1902.4 791.64C1899.76 786.36 1898.44 780.32 1898.44 773.52ZM1950.76 773.76C1950.76 769.68 1949.96 766.2 1948.36 763.32C1946.76 760.36 1944.6 758.12 1941.88 756.6C1939.16 755 1936.24 754.2 1933.12 754.2C1930 754.2 1927.12 754.96 1924.48 756.48C1921.84 758 1919.68 760.24 1918 763.2C1916.4 766.08 1915.6 769.52 1915.6 773.52C1915.6 777.52 1916.4 781.04 1918 784.08C1919.68 787.04 1921.84 789.32 1924.48 790.92C1927.2 792.52 1930.08 793.32 1933.12 793.32C1936.24 793.32 1939.16 792.56 1941.88 791.04C1944.6 789.44 1946.76 787.2 1948.36 784.32C1949.96 781.36 1950.76 777.84 1950.76 773.76ZM2000.89 750.84C2003.05 747.32 2005.85 744.56 2009.29 742.56C2012.81 740.56 2016.81 739.56 2021.29 739.56V757.2H2016.85C2011.57 757.2 2007.57 758.44 2004.85 760.92C2002.21 763.4 2000.89 767.72 2000.89 773.88V807H1984.09V740.52H2000.89V750.84ZM2041.13 732.6C2038.17 732.6 2035.69 731.68 2033.69 729.84C2031.77 727.92 2030.81 725.56 2030.81 722.76C2030.81 719.96 2031.77 717.64 2033.69 715.8C2035.69 713.88 2038.17 712.92 2041.13 712.92C2044.09 712.92 2046.53 713.88 2048.45 715.8C2050.45 717.64 2051.45 719.96 2051.45 722.76C2051.45 725.56 2050.45 727.92 2048.45 729.84C2046.53 731.68 2044.09 732.6 2041.13 732.6ZM2049.41 740.52V807H2032.61V740.52H2049.41ZM2111.4 750.24C2113.56 747.04 2116.52 744.44 2120.28 742.44C2124.12 740.44 2128.48 739.44 2133.36 739.44C2139.04 739.44 2144.16 740.84 2148.72 743.64C2153.36 746.44 2157 750.44 2159.64 755.64C2162.36 760.76 2163.72 766.72 2163.72 773.52C2163.72 780.32 2162.36 786.36 2159.64 791.64C2157 796.84 2153.36 800.88 2148.72 803.76C2144.16 806.64 2139.04 808.08 2133.36 808.08C2128.4 808.08 2124.04 807.12 2120.28 805.2C2116.6 803.2 2113.64 800.64 2111.4 797.52V807H2094.6V718.2H2111.4V750.24ZM2146.56 773.52C2146.56 769.52 2145.72 766.08 2144.04 763.2C2142.44 760.24 2140.28 758 2137.56 756.48C2134.92 754.96 2132.04 754.2 2128.92 754.2C2125.88 754.2 2123 755 2120.28 756.6C2117.64 758.12 2115.48 760.36 2113.8 763.32C2112.2 766.28 2111.4 769.76 2111.4 773.76C2111.4 777.76 2112.2 781.24 2113.8 784.2C2115.48 787.16 2117.64 789.44 2120.28 791.04C2123 792.56 2125.88 793.32 2128.92 793.32C2132.04 793.32 2134.92 792.52 2137.56 790.92C2140.28 789.32 2142.44 787.04 2144.04 784.08C2145.72 781.12 2146.56 777.6 2146.56 773.52ZM2237.73 772.32C2237.73 774.72 2237.57 776.88 2237.25 778.8H2188.65C2189.05 783.6 2190.73 787.36 2193.69 790.08C2196.65 792.8 2200.29 794.16 2204.61 794.16C2210.85 794.16 2215.29 791.48 2217.93 786.12H2236.05C2234.13 792.52 2230.45 797.8 2225.01 801.96C2219.57 806.04 2212.89 808.08 2204.97 808.08C2198.57 808.08 2192.81 806.68 2187.69 803.88C2182.65 801 2178.69 796.96 2175.81 791.76C2173.01 786.56 2171.61 780.56 2171.61 773.76C2171.61 766.88 2173.01 760.84 2175.81 755.64C2178.61 750.44 2182.53 746.44 2187.57 743.64C2192.61 740.84 2198.41 739.44 2204.97 739.44C2211.29 739.44 2216.93 740.8 2221.89 743.52C2226.93 746.24 2230.81 750.12 2233.53 755.16C2236.33 760.12 2237.73 765.84 2237.73 772.32ZM2220.33 767.52C2220.25 763.2 2218.69 759.76 2215.65 757.2C2212.61 754.56 2208.89 753.24 2204.49 753.24C2200.33 753.24 2196.81 754.52 2193.93 757.08C2191.13 759.56 2189.41 763.04 2188.77 767.52H2220.33ZM2266.79 750.84C2268.95 747.32 2271.75 744.56 2275.19 742.56C2278.71 740.56 2282.71 739.56 2287.19 739.56V757.2H2282.75C2277.47 757.2 2273.47 758.44 2270.75 760.92C2268.11 763.4 2266.79 767.72 2266.79 773.88V807H2249.99V740.52H2266.79V750.84ZM2337.87 807L2315.31 778.68V807H2298.51V718.2H2315.31V768.72L2337.63 740.52H2359.47L2330.19 773.88L2359.71 807H2337.87ZM2364.26 773.52C2364.26 766.8 2365.58 760.84 2368.22 755.64C2370.94 750.44 2374.58 746.44 2379.14 743.64C2383.78 740.84 2388.94 739.44 2394.62 739.44C2399.58 739.44 2403.9 740.44 2407.58 742.44C2411.34 744.44 2414.34 746.96 2416.58 750V740.52H2433.5V807H2416.58V797.28C2414.42 800.4 2411.42 803 2407.58 805.08C2403.82 807.08 2399.46 808.08 2394.5 808.08C2388.9 808.08 2383.78 806.64 2379.14 803.76C2374.58 800.88 2370.94 796.84 2368.22 791.64C2365.58 786.36 2364.26 780.32 2364.26 773.52ZM2416.58 773.76C2416.58 769.68 2415.78 766.2 2414.18 763.32C2412.58 760.36 2410.42 758.12 2407.7 756.6C2404.98 755 2402.06 754.2 2398.94 754.2C2395.82 754.2 2392.94 754.96 2390.3 756.48C2387.66 758 2385.5 760.24 2383.82 763.2C2382.22 766.08 2381.42 769.52 2381.42 773.52C2381.42 777.52 2382.22 781.04 2383.82 784.08C2385.5 787.04 2387.66 789.32 2390.3 790.92C2393.02 792.52 2395.9 793.32 2398.94 793.32C2402.06 793.32 2404.98 792.56 2407.7 791.04C2410.42 789.44 2412.58 787.2 2414.18 784.32C2415.78 781.36 2416.58 777.84 2416.58 773.76ZM2475.35 808.08C2469.91 808.08 2465.03 807.12 2460.71 805.2C2456.39 803.2 2452.95 800.52 2450.39 797.16C2447.91 793.8 2446.55 790.08 2446.31 786H2463.23C2463.55 788.56 2464.79 790.68 2466.95 792.36C2469.19 794.04 2471.95 794.88 2475.23 794.88C2478.43 794.88 2480.91 794.24 2482.67 792.96C2484.51 791.68 2485.43 790.04 2485.43 788.04C2485.43 785.88 2484.31 784.28 2482.07 783.24C2479.91 782.12 2476.43 780.92 2471.63 779.64C2466.67 778.44 2462.59 777.2 2459.39 775.92C2456.27 774.64 2453.55 772.68 2451.23 770.04C2448.99 767.4 2447.87 763.84 2447.87 759.36C2447.87 755.68 2448.91 752.32 2450.99 749.28C2453.15 746.24 2456.19 743.84 2460.11 742.08C2464.11 740.32 2468.79 739.44 2474.15 739.44C2482.07 739.44 2488.39 741.44 2493.11 745.44C2497.83 749.36 2500.43 754.68 2500.91 761.4H2484.83C2484.59 758.76 2483.47 756.68 2481.47 755.16C2479.55 753.56 2476.95 752.76 2473.67 752.76C2470.63 752.76 2468.27 753.32 2466.59 754.44C2464.99 755.56 2464.19 757.12 2464.19 759.12C2464.19 761.36 2465.31 763.08 2467.55 764.28C2469.79 765.4 2473.27 766.56 2477.99 767.76C2482.79 768.96 2486.75 770.2 2489.87 771.48C2492.99 772.76 2495.67 774.76 2497.91 777.48C2500.23 780.12 2501.43 783.64 2501.51 788.04C2501.51 791.88 2500.43 795.32 2498.27 798.36C2496.19 801.4 2493.15 803.8 2489.15 805.56C2485.23 807.24 2480.63 808.08 2475.35 808.08ZM2573.42 808.08C2567.02 808.08 2561.26 806.68 2556.14 803.88C2551.02 801 2546.98 796.96 2544.02 791.76C2541.14 786.56 2539.7 780.56 2539.7 773.76C2539.7 766.96 2541.18 760.96 2544.14 755.76C2547.18 750.56 2551.3 746.56 2556.5 743.76C2561.7 740.88 2567.5 739.44 2573.9 739.44C2580.3 739.44 2586.1 740.88 2591.3 743.76C2596.5 746.56 2600.58 750.56 2603.54 755.76C2606.58 760.96 2608.1 766.96 2608.1 773.76C2608.1 780.56 2606.54 786.56 2603.42 791.76C2600.38 796.96 2596.22 801 2590.94 803.88C2585.74 806.68 2579.9 808.08 2573.42 808.08ZM2573.42 793.44C2576.46 793.44 2579.3 792.72 2581.94 791.28C2584.66 789.76 2586.82 787.52 2588.42 784.56C2590.02 781.6 2590.82 778 2590.82 773.76C2590.82 767.44 2589.14 762.6 2585.78 759.24C2582.5 755.8 2578.46 754.08 2573.66 754.08C2568.86 754.08 2564.82 755.8 2561.54 759.24C2558.34 762.6 2556.74 767.44 2556.74 773.76C2556.74 780.08 2558.3 784.96 2561.42 788.4C2564.62 791.76 2568.62 793.44 2573.42 793.44ZM2657.26 739.56C2665.18 739.56 2671.58 742.08 2676.46 747.12C2681.34 752.08 2683.78 759.04 2683.78 768V807H2666.98V770.28C2666.98 765 2665.66 760.96 2663.02 758.16C2660.38 755.28 2656.78 753.84 2652.22 753.84C2647.58 753.84 2643.9 755.28 2641.18 758.16C2638.54 760.96 2637.22 765 2637.22 770.28V807H2620.42V740.52H2637.22V748.8C2639.46 745.92 2642.3 743.68 2645.74 742.08C2649.26 740.4 2653.1 739.56 2657.26 739.56ZM2716.56 718.2V807H2699.76V718.2H2716.56ZM2741.68 732.6C2738.72 732.6 2736.24 731.68 2734.24 729.84C2732.32 727.92 2731.36 725.56 2731.36 722.76C2731.36 719.96 2732.32 717.64 2734.24 715.8C2736.24 713.88 2738.72 712.92 2741.68 712.92C2744.64 712.92 2747.08 713.88 2749 715.8C2751 717.64 2752 719.96 2752 722.76C2752 725.56 2751 727.92 2749 729.84C2747.08 731.68 2744.64 732.6 2741.68 732.6ZM2749.96 740.52V807H2733.16V740.52H2749.96ZM2803.39 739.56C2811.31 739.56 2817.71 742.08 2822.59 747.12C2827.47 752.08 2829.91 759.04 2829.91 768V807H2813.11V770.28C2813.11 765 2811.79 760.96 2809.15 758.16C2806.51 755.28 2802.91 753.84 2798.35 753.84C2793.71 753.84 2790.03 755.28 2787.31 758.16C2784.67 760.96 2783.35 765 2783.35 770.28V807H2766.55V740.52H2783.35V748.8C2785.59 745.92 2788.43 743.68 2791.87 742.08C2795.39 740.4 2799.23 739.56 2803.39 739.56ZM2907.69 772.32C2907.69 774.72 2907.53 776.88 2907.21 778.8H2858.61C2859.01 783.6 2860.69 787.36 2863.65 790.08C2866.61 792.8 2870.25 794.16 2874.57 794.16C2880.81 794.16 2885.25 791.48 2887.89 786.12H2906.01C2904.09 792.52 2900.41 797.8 2894.97 801.96C2889.53 806.04 2882.85 808.08 2874.93 808.08C2868.53 808.08 2862.77 806.68 2857.65 803.88C2852.61 801 2848.65 796.96 2845.77 791.76C2842.97 786.56 2841.57 780.56 2841.57 773.76C2841.57 766.88 2842.97 760.84 2845.77 755.64C2848.57 750.44 2852.49 746.44 2857.53 743.64C2862.57 740.84 2868.37 739.44 2874.93 739.44C2881.25 739.44 2886.89 740.8 2891.85 743.52C2896.89 746.24 2900.77 750.12 2903.49 755.16C2906.29 760.12 2907.69 765.84 2907.69 772.32ZM2890.29 767.52C2890.21 763.2 2888.65 759.76 2885.61 757.2C2882.57 754.56 2878.85 753.24 2874.45 753.24C2870.29 753.24 2866.77 754.52 2863.89 757.08C2861.09 759.56 2859.37 763.04 2858.73 767.52H2890.29ZM2944.23 773.52C2944.23 766.8 2945.55 760.84 2948.19 755.64C2950.91 750.44 2954.55 746.44 2959.11 743.64C2963.75 740.84 2968.91 739.44 2974.59 739.44C2979.55 739.44 2983.87 740.44 2987.55 742.44C2991.31 744.44 2994.31 746.96 2996.55 750V740.52H3013.47V807H2996.55V797.28C2994.39 800.4 2991.39 803 2987.55 805.08C2983.79 807.08 2979.43 808.08 2974.47 808.08C2968.87 808.08 2963.75 806.64 2959.11 803.76C2954.55 800.88 2950.91 796.84 2948.19 791.64C2945.55 786.36 2944.23 780.32 2944.23 773.52ZM2996.55 773.76C2996.55 769.68 2995.75 766.2 2994.15 763.32C2992.55 760.36 2990.39 758.12 2987.67 756.6C2984.95 755 2982.03 754.2 2978.91 754.2C2975.79 754.2 2972.91 754.96 2970.27 756.48C2967.63 758 2965.47 760.24 2963.79 763.2C2962.19 766.08 2961.39 769.52 2961.39 773.52C2961.39 777.52 2962.19 781.04 2963.79 784.08C2965.47 787.04 2967.63 789.32 2970.27 790.92C2972.99 792.52 2975.87 793.32 2978.91 793.32C2982.03 793.32 2984.95 792.56 2987.67 791.04C2990.39 789.44 2992.55 787.2 2994.15 784.32C2995.75 781.36 2996.55 777.84 2996.55 773.76ZM3066.71 739.56C3074.63 739.56 3081.03 742.08 3085.91 747.12C3090.79 752.08 3093.23 759.04 3093.23 768V807H3076.43V770.28C3076.43 765 3075.11 760.96 3072.47 758.16C3069.83 755.28 3066.23 753.84 3061.67 753.84C3057.03 753.84 3053.35 755.28 3050.63 758.16C3047.99 760.96 3046.67 765 3046.67 770.28V807H3029.87V740.52H3046.67V748.8C3048.91 745.92 3051.75 743.68 3055.19 742.08C3058.71 740.4 3062.55 739.56 3066.71 739.56ZM3104.89 773.52C3104.89 766.8 3106.21 760.84 3108.85 755.64C3111.57 750.44 3115.25 746.44 3119.89 743.64C3124.53 740.84 3129.69 739.44 3135.37 739.44C3139.69 739.44 3143.81 740.4 3147.73 742.32C3151.65 744.16 3154.77 746.64 3157.09 749.76V718.2H3174.13V807H3157.09V797.16C3155.01 800.44 3152.09 803.08 3148.33 805.08C3144.57 807.08 3140.21 808.08 3135.25 808.08C3129.65 808.08 3124.53 806.64 3119.89 803.76C3115.25 800.88 3111.57 796.84 3108.85 791.64C3106.21 786.36 3104.89 780.32 3104.89 773.52ZM3157.21 773.76C3157.21 769.68 3156.41 766.2 3154.81 763.32C3153.21 760.36 3151.05 758.12 3148.33 756.6C3145.61 755 3142.69 754.2 3139.57 754.2C3136.45 754.2 3133.57 754.96 3130.93 756.48C3128.29 758 3126.13 760.24 3124.45 763.2C3122.85 766.08 3122.05 769.52 3122.05 773.52C3122.05 777.52 3122.85 781.04 3124.45 784.08C3126.13 787.04 3128.29 789.32 3130.93 790.92C3133.65 792.52 3136.53 793.32 3139.57 793.32C3142.69 793.32 3145.61 792.56 3148.33 791.04C3151.05 789.44 3153.21 787.2 3154.81 784.32C3156.41 781.36 3157.21 777.84 3157.21 773.76ZM3186.22 773.52C3186.22 766.8 3187.54 760.84 3190.18 755.64C3192.9 750.44 3196.54 746.44 3201.1 743.64C3205.74 740.84 3210.9 739.44 3216.58 739.44C3221.54 739.44 3225.86 740.44 3229.54 742.44C3233.3 744.44 3236.3 746.96 3238.54 750V740.52H3255.46V807H3238.54V797.28C3236.38 800.4 3233.38 803 3229.54 805.08C3225.78 807.08 3221.42 808.08 3216.46 808.08C3210.86 808.08 3205.74 806.64 3201.1 803.76C3196.54 800.88 3192.9 796.84 3190.18 791.64C3187.54 786.36 3186.22 780.32 3186.22 773.52ZM3238.54 773.76C3238.54 769.68 3237.74 766.2 3236.14 763.32C3234.54 760.36 3232.38 758.12 3229.66 756.6C3226.94 755 3224.02 754.2 3220.9 754.2C3217.78 754.2 3214.9 754.96 3212.26 756.48C3209.62 758 3207.46 760.24 3205.78 763.2C3204.18 766.08 3203.38 769.52 3203.38 773.52C3203.38 777.52 3204.18 781.04 3205.78 784.08C3207.46 787.04 3209.62 789.32 3212.26 790.92C3214.98 792.52 3217.86 793.32 3220.9 793.32C3224.02 793.32 3226.94 792.56 3229.66 791.04C3232.38 789.44 3234.54 787.2 3236.14 784.32C3237.74 781.36 3238.54 777.84 3238.54 773.76ZM3293.59 721.8L3291.67 779.76H3277.51L3275.47 721.8H3293.59ZM3284.95 807.84C3281.91 807.84 3279.39 806.92 3277.39 805.08C3275.47 803.16 3274.51 800.8 3274.51 798C3274.51 795.2 3275.47 792.88 3277.39 791.04C3279.39 789.12 3281.91 788.16 3284.95 788.16C3287.91 788.16 3290.35 789.12 3292.27 791.04C3294.19 792.88 3295.15 795.2 3295.15 798C3295.15 800.8 3294.19 803.16 3292.27 805.08C3290.35 806.92 3287.91 807.84 3284.95 807.84Z" fill="white"/>
<path d="M494.333 828.333C702.729 828.333 871.667 663.723 871.667 460.667C871.667 257.61 702.729 93 494.333 93C285.938 93 117 257.61 117 460.667C117 663.723 285.938 828.333 494.333 828.333Z" stroke="white" stroke-width="100" stroke-linecap="round" stroke-linejoin="round"/>
<path d="M990 978L781 765" stroke="white" stroke-width="100" stroke-linecap="round" stroke-linejoin="round"/>
<rect x="147.5" y="112.5" width="699" height="699" rx="349.5" fill="#FF0404" stroke="white"/>
<path d="M765.5 564.667V357.333C765.489 348.244 762.696 339.316 757.401 331.447C752.107 323.577 744.496 317.042 735.333 312.497L524.167 208.831C514.995 204.281 504.591 201.886 494 201.886C483.409 201.886 473.005 204.281 463.833 208.831L252.667 312.497C243.504 317.042 235.893 323.577 230.599 331.447C225.304 339.316 222.511 348.244 222.5 357.333V564.667C222.511 573.756 225.304 582.684 230.599 590.553C235.893 598.423 243.504 604.958 252.667 609.502L463.833 713.169C473.005 717.718 483.409 720.114 494 720.114C504.591 720.114 514.995 717.718 524.167 713.169L735.333 609.502C744.496 604.958 752.107 598.423 757.401 590.553C762.696 582.684 765.489 573.756 765.5 564.667Z" stroke="white" stroke-width="30" stroke-linecap="round" stroke-linejoin="round"/>
<path d="M230.645 330.38L494 461.259L757.354 330.38" stroke="white" stroke-width="30" stroke-linecap="round" stroke-linejoin="round"/>
<path d="M494 722.24V461" stroke="white" stroke-width="30" stroke-linecap="round" stroke-linejoin="round"/>
<rect x="1468" y="135" width="97" height="88" fill="white"/>
</svg>
